<svg width="51" height="51" viewBox="0 0 51 51" fill="none" xmlns="http://www.w3.org/2000/svg">
<g clip-path="url(#clip0)">
<path d="M35.51 16.1355H15.337L25.4235 24.7811L35.51 16.1355Z" fill="white"/>
<path d="M25.4235 26.8498C25.2103 26.8498 25.0041 26.7735 24.8423 26.6344L13.8163 17.1836V33.9927H37.0306V17.1836L26.0046 26.6344C25.8429 26.7735 25.6367 26.8498 25.4235 26.8498Z" fill="white"/>
<path d="M25.4235 0.0640869C11.6165 0.0640869 0.423492 11.2571 0.423492 25.0641C0.423492 38.8711 11.6165 50.0641 25.4235 50.0641C39.2305 50.0641 50.4235 38.8711 50.4235 25.0641C50.4078 11.2636 39.224 0.0797817 25.4235 0.0640869ZM38.8163 34.8855C38.8163 35.3786 38.4166 35.7784 37.9235 35.7784H12.9235C12.4304 35.7784 12.0306 35.3786 12.0306 34.8855V15.2427C12.0306 14.7496 12.4304 14.3498 12.9235 14.3498H37.9235C38.4166 14.3498 38.8163 14.7496 38.8163 15.2427V34.8855Z" fill="white"/>
</g>
<defs>
<clipPath id="clip0">
<rect width="50" height="50" fill="white" transform="translate(0.423492 0.0640869)"/>
</clipPath>
</defs>
</svg>
