<svg width="50" height="50" viewBox="0 0 50 50" fill="none" xmlns="http://www.w3.org/2000/svg">
<path d="M25 0C11.1875 0 0 11.4781 0 25.6344C0 36.9625 7.1625 46.5689 17.0937 49.9558C18.3437 50.1971 18.8021 49.4036 18.8021 48.7232C18.8021 48.1145 18.7812 46.5015 18.7708 44.3646C11.8167 45.9102 10.35 40.9255 10.35 40.9255C9.2125 37.9668 7.56875 37.1755 7.56875 37.1755C5.30417 35.5864 7.74375 35.619 7.74375 35.619C10.2542 35.7973 11.5729 38.2603 11.5729 38.2603C13.8021 42.1798 17.425 41.0472 18.8542 40.3929C19.0792 38.7342 19.7229 37.606 20.4375 36.9647C14.8854 36.3234 9.05 34.1191 9.05 24.2975C9.05 21.4997 10.0187 19.2128 11.6229 17.4193C11.3417 16.7715 10.4979 14.165 11.8417 10.6346C11.8417 10.6346 13.9354 9.94768 18.7167 13.2628C20.7167 12.6933 22.8417 12.4107 24.9667 12.3976C27.0917 12.4107 29.2167 12.6933 31.2167 13.2628C35.9667 9.94768 38.0604 10.6346 38.0604 10.6346C39.4042 14.165 38.5604 16.7715 38.3104 17.4193C39.9042 19.2128 40.8729 21.4997 40.8729 24.2975C40.8729 34.1451 35.0292 36.3125 29.4667 36.9429C30.3417 37.7125 31.1542 39.2842 31.1542 41.6863C31.1542 45.1167 31.1229 47.8732 31.1229 48.7058C31.1229 49.3775 31.5604 50.1797 32.8417 49.9232C42.8437 46.558 50 36.9451 50 25.6344C50 11.4781 38.8062 0 25 0V0Z" fill="white"/>
</svg>
