<svg width="148" height="149" viewBox="0 0 148 149" fill="none" xmlns="http://www.w3.org/2000/svg">
<path d="M111.853 19.289C111.853 11.2162 105.366 4.67307 97.3629 4.67307H47.1833C39.1802 4.67307 32.6925 11.2162 32.6925 19.289V128.926C32.6925 136.999 39.1802 143.542 47.1833 143.542H97.3629C105.366 143.542 111.853 136.999 111.853 128.926V19.289ZM39.576 30.0167H104.969V110.908H39.576V30.0167ZM47.1134 11.6165H97.4328C101.626 11.6165 104.969 15.1425 104.969 19.3737V23.0732H39.576V19.3737C39.576 15.1425 42.9199 11.6165 47.1134 11.6165ZM97.4328 136.599H47.1134C42.979 136.629 39.6051 133.27 39.576 129.1V117.851H104.969V129.011C104.99 133.181 101.655 136.578 97.521 136.599H97.4328Z" fill="#B4175E"/>
<path d="M79.0087 123.753H65.5375C63.6359 123.753 62.0958 125.307 62.0958 127.225C62.0958 129.143 63.6359 130.697 65.5375 130.697H79.0087C80.9092 130.697 82.4504 129.143 82.4504 127.225C82.4504 125.307 80.9092 123.753 79.0087 123.753Z" fill="#B4175E"/>
</svg>
