<svg width="51" height="51" viewBox="0 0 51 51" fill="none" xmlns="http://www.w3.org/2000/svg">
<g clip-path="url(#clip0)">
<path d="M25.4235 50.0641C39.2306 50.0641 50.4235 38.8712 50.4235 25.0641C50.4235 11.257 39.2306 0.0640869 25.4235 0.0640869C11.6164 0.0640869 0.423492 11.257 0.423492 25.0641C0.423492 38.8712 11.6164 50.0641 25.4235 50.0641Z" fill="white"/>
<path d="M11.8631 24.5225L35.9672 15.2287C37.086 14.8246 38.0631 15.5017 37.7006 17.1933L37.7027 17.1912L33.5985 36.5267C33.2943 37.8975 32.4797 38.2308 31.3402 37.585L25.0902 32.9787L22.0756 35.8829C21.7422 36.2162 21.461 36.4975 20.8152 36.4975L21.2589 30.1371L32.8422 19.6725C33.3464 19.2287 32.7297 18.9787 32.0652 19.4204L17.7506 28.4329L11.5797 26.5079C10.2402 26.0829 10.211 25.1683 11.8631 24.5225Z" fill="#211249"/>
</g>
<defs>
<clipPath id="clip0">
<rect width="50" height="50" fill="white" transform="translate(0.423492 0.0640869)"/>
</clipPath>
</defs>
</svg>
