<svg enable-background="new 0 0 144.083 144" height="80px" id="Youtube" version="1.1" viewBox="0 0 50 50" width="80px" xml:space="preserve" xmlns="http://www.w3.org/2000/svg" xmlns:xlink="http://www.w3.org/1999/xlink">
<path d="M72.04,14.166C40.1,14.166,14.207,40.06,14.207,72c0,31.939,25.893,57.834,57.833,57.834  c31.941,0,57.835-25.895,57.835-57.834C129.875,40.06,103.981,14.166,72.04,14.166z M104.424,85.031c0,4.446-3.604,8.05-8.049,8.05  c0,0-6.875,1-24.73,1c-17.958,0-24.271-1-24.271-1c-4.446,0-8.051-3.604-8.051-8.05V58.468c0-4.445,3.604-8.05,8.051-8.05  c0,0,6.313-1,24.251-1c17.875,0,24.75,1,24.75,1c4.445,0,8.049,3.604,8.049,8.05V85.031z" fill="white"/><polygon points="62.019,84.496 83.973,71.821 62.019,59.146 " fill="white"/>
</svg>